<svg xmlns="http://www.w3.org/2000/svg" width="21.956" height="21.956" viewBox="0 0 21.956 21.956"><path d="M10.978,1.979c2.931,0,3.279.011,4.437.064,2.975.135,4.365,1.547,4.5,4.5.053,1.157.063,1.5.063,4.436s-.011,3.279-.063,4.436c-.136,2.95-1.522,4.365-4.5,4.5-1.158.053-1.5.064-4.437.064s-3.279-.011-4.436-.064c-2.982-.136-4.365-1.554-4.5-4.5-.053-1.157-.064-1.5-.064-4.436S1.99,7.7,2.042,6.542c.136-2.952,1.522-4.365,4.5-4.5,1.158-.052,1.5-.063,4.436-.063Zm0-1.979C8,0,7.623.013,6.452.066,2.466.249.25,2.461.067,6.451.013,7.623,0,8,0,10.978S.013,14.334.066,15.5c.183,3.987,2.4,6.2,6.386,6.386,1.172.053,1.545.066,4.527.066s3.356-.013,4.527-.066c3.983-.183,6.2-2.4,6.385-6.386.054-1.171.067-1.545.067-4.527s-.013-3.355-.066-4.526C21.711,2.469,19.5.25,15.506.067,14.334.013,13.96,0,10.978,0Zm0,5.341a5.638,5.638,0,1,0,5.637,5.637A5.637,5.637,0,0,0,10.978,5.341Zm0,9.3a3.659,3.659,0,1,1,3.659-3.659A3.659,3.659,0,0,1,10.978,14.638ZM16.839,3.8a1.317,1.317,0,1,0,1.316,1.317A1.318,1.318,0,0,0,16.839,3.8Z"/></svg>