<svg xmlns="http://www.w3.org/2000/svg" width="24" height="24" viewBox="0 0 24 24"><defs><style>.a{fill:#b0a7a8;}</style></defs><path class="a" d="M0,0V24H24V0ZM12,20a7.991,7.991,0,0,1-2.369-.357,8.939,8.939,0,0,0,.994-2.1l.5-1.9a2.139,2.139,0,0,0,1.833.918c2.413,0,4.151-2.219,4.151-4.976a4.7,4.7,0,0,0-4.932-4.62c-3.452,0-5.286,2.317-5.286,4.841a3.588,3.588,0,0,0,1.624,3.1c.151.07.232.039.268-.107L9,13.893a.24.24,0,0,0-.056-.23,3.106,3.106,0,0,1-.6-1.825,3.463,3.463,0,0,1,3.612-3.472,3.158,3.158,0,0,1,3.341,3.255c0,2.164-1.093,3.663-2.515,3.663a1.161,1.161,0,0,1-1.185-1.446,16.063,16.063,0,0,0,.663-2.664,1,1,0,0,0-1.012-1.127c-.8,0-1.448.831-1.448,1.943a2.891,2.891,0,0,0,.239,1.188s-.793,3.353-.938,3.977a7.659,7.659,0,0,0-.028,2.294A8,8,0,1,1,12,20Z"/></svg>