<svg xmlns="http://www.w3.org/2000/svg" width="26.459" height="21.502" viewBox="0 0 26.459 21.502"><path d="M26.459,4.794a10.838,10.838,0,0,1-3.118.854,5.437,5.437,0,0,0,2.387-3,10.874,10.874,0,0,1-3.447,1.317,5.432,5.432,0,0,0-9.251,4.95A15.41,15.41,0,0,1,1.842,3.241a5.436,5.436,0,0,0,1.679,7.248A5.405,5.405,0,0,1,1.064,9.81,5.432,5.432,0,0,0,5.418,15.2a5.441,5.441,0,0,1-2.452.093,5.432,5.432,0,0,0,5.071,3.769A10.915,10.915,0,0,1,0,21.312,15.367,15.367,0,0,0,8.321,23.75,15.352,15.352,0,0,0,23.75,7.6a11.052,11.052,0,0,0,2.709-2.81Z" transform="translate(0 -2.248)"/></svg>