<svg xmlns="http://www.w3.org/2000/svg" width="24" height="24" viewBox="0 0 24 24"><defs><style>.a{fill:#b0a7a8;}</style></defs><path class="a" d="M13.888,14.154a.97.97,0,0,0-.717.4V12.666h-.814v5.88h.814v-.333a.924.924,0,0,0,.766.388c.537,0,.737-.417.737-.954V15.241c0-.588-.195-1.087-.786-1.087Zm-.044,3.376a.5.5,0,0,1-.07.3.344.344,0,0,1-.413.045l-.191-.153v-2.7l.167-.132a.336.336,0,0,1,.421.071.542.542,0,0,1,.086.333ZM11.128,9V6.881c0-.25.115-.434.353-.434.26,0,.371.179.371.434V9c0,.248-.126.431-.354.431A.384.384,0,0,1,11.128,9ZM9.279,13.52h-.94v5.027H7.431V13.52h-.94v-.854H9.279v.854Zm1.484.688h.807v4.338h-.807v-.479a1.758,1.758,0,0,1-.464.4c-.435.249-1.031.244-1.031-.636V14.208h.806v3.325c0,.175.042.292.215.292.157,0,.376-.2.474-.325ZM0,0V24H24V0H0ZM13.434,5.62h.847V9.111c0,.184.044.307.226.307.165,0,.4-.212.5-.341V5.62h.847v4.555h-.847v-.5a1.338,1.338,0,0,1-.979.569c-.454,0-.591-.364-.591-.813V5.62ZM11.5,5.582a1.189,1.189,0,0,1,1.217,1.224V9.039a1.159,1.159,0,0,1-1.217,1.22,1.094,1.094,0,0,1-1.241-1.22V6.806A1.166,1.166,0,0,1,11.5,5.582ZM8.062,4,8.72,6.468,9.331,4H10.3L9.19,7.67v2.5H8.236V7.67L7.1,4h.96Zm8.493,15.912c-1.735.118-7.377.118-9.11,0-1.878-.128-2.1-1.267-2.111-4.245.014-2.983.235-4.116,2.111-4.245,1.733-.118,7.375-.118,9.11,0,1.878.128,2.1,1.267,2.111,4.245C18.652,18.65,18.431,19.783,16.555,19.912ZM16.508,14.1a1.192,1.192,0,0,0-1.225,1.275v1.947c0,.781.394,1.342,1.164,1.342.85,0,1.208-.506,1.208-1.342v-.326h-.83v.3c0,.378-.02.607-.36.607s-.352-.282-.352-.607v-.818h1.542v-1.1C17.655,14.591,17.282,14.1,16.508,14.1Zm.317,1.707h-.712v-.439c0-.3.062-.508.36-.508s.352.215.352.508Z"/></svg>